0
SECTION
2
HEADER
9
$ACADVER
1
AC1021
9
$LASTSAVEDBY
1
@tarikjabiri/dxf
9
$HANDSEED
5
34
9
$INSUNITS
70
0
9
$CLAYER
8
0
9
$VIEWCTR
10
450
20
1050
0
ENDSEC
0
SECTION
2
CLASSES
0
ENDSEC
0
SECTION
2
TABLES
0
TABLE
2
VPORT
5
1
330
0
100
AcDbSymbolTable
70
1
0
VPORT
5
19
330
1
100
AcDbSymbolTableRecord
100
AcDbViewportTableRecord
2
*Active
70
0
10
0
20
0
11
1
21
1
12
450
22
1050
13
0
23
0
14
10
24
10
15
10
25
10
16
0
26
0
36
1
17
0
27
0
37
0
40
2100
41
2
42
50
43
0
44
0
50
0
51
0
71
0
72
100
73
1
74
3
75
0
76
1
77
0
78
0
281
0
65
1
110
0
120
0
130
0
111
1
121
0
131
0
112
0
122
1
132
0
79
0
146
0
348
10020
60
7
61
5
292
1
282
1
141
0
142
0
63
250
421
3358443
0
ENDTAB
0
TABLE
2
LTYPE
5
2
330
0
100
AcDbSymbolTable
70
3
0
LTYPE
5
12
330
2
100
AcDbSymbolTableRecord
100
AcDbLinetypeTableRecord
2
ByBlock
70
0
3

72
65
73
0
40
0
0
LTYPE
5
13
330
2
100
AcDbSymbolTableRecord
100
AcDbLinetypeTableRecord
2
ByLayer
70
0
3

72
65
73
0
40
0
0
LTYPE
5
14
330
2
100
AcDbSymbolTableRecord
100
AcDbLinetypeTableRecord
2
Continuous
70
0
3
Solid line
72
65
73
0
40
0
0
ENDTAB
0
TABLE
2
LAYER
5
3
330
0
100
AcDbSymbolTable
70
8
0
LAYER
5
15
330
3
100
AcDbSymbolTableRecord
100
AcDbLayerTableRecord
2
0
70
0
62
7
6
Continuous
370
0
390
0
0
LAYER
5
1A
330
3
100
AcDbSymbolTableRecord
100
AcDbLayerTableRecord
2
HINGE_SCREW_HOLES
70
0
62
3
6
Continuous
370
0
390
0
0
LAYER
5
1B
330
3
100
AcDbSymbolTableRecord
100
AcDbLayerTableRecord
2
HINGE_CUPS
70
0
62
3
6
Continuous
370
0
390
0
0
LAYER
5
1C
330
3
100
AcDbSymbolTableRecord
100
AcDbLayerTableRecord
2
INNER_REBATE
70
0
62
1
6
Continuous
370
0
390
0
0
LAYER
5
1D
330
3
100
AcDbSymbolTableRecord
100
AcDbLayerTableRecord
2
INNER_PERIMETER_CUT
70
0
62
1
6
Continuous
370
0
390
0
0
LAYER
5
1E
330
3
100
AcDbSymbolTableRecord
100
AcDbLayerTableRecord
2
PERIMETER_CUT
70
0
62
5
6
Continuous
370
0
390
0
0
LAYER
5
1F
330
3
100
AcDbSymbolTableRecord
100
AcDbLayerTableRecord
2
panel
70
0
62
2
6
Continuous
370
0
390
0
0
LAYER
5
20
330
3
100
AcDbSymbolTableRecord
100
AcDbLayerTableRecord
2
PART_IDENTIFICATION
70
0
62
7
6
Continuous
370
0
390
0
0
ENDTAB
0
TABLE
2
STYLE
5
4
330
0
100
AcDbSymbolTable
70
1
0
STYLE
5
16
330
4
100
AcDbSymbolTableRecord
100
AcDbTextStyleTableRecord
2
Standard
70
0
40
0
41
1
50
0
71
0
42
1
3
txt
4

0
ENDTAB
0
TABLE
2
VIEW
5
5
330
0
100
AcDbSymbolTable
70
0
0
ENDTAB
0
TABLE
2
UCS
5
6
330
0
100
AcDbSymbolTable
70
0
0
ENDTAB
0
TABLE
2
APPID
5
7
330
0
100
AcDbSymbolTable
70
1
0
APPID
5
17
330
7
100
AcDbSymbolTableRecord
100
AcDbRegAppTableRecord
2
ACAD
70
0
0
ENDTAB
0
TABLE
2
DIMSTYLE
5
8
330
0
100
AcDbSymbolTable
70
1
100
AcDbDimStyleTable
0
DIMSTYLE
105
18
330
8
100
AcDbSymbolTableRecord
100
AcDbDimStyleTableRecord
2
Standard
70
0
340
16
0
ENDTAB
0
TABLE
2
BLOCK_RECORD
5
9
330
0
100
AcDbSymbolTable
70
2
0
BLOCK_RECORD
5
C
330
9
100
AcDbSymbolTableRecord
100
AcDbBlockTableRecord
2
*Model_Space
70
0
280
1
281
0
0
BLOCK_RECORD
5
F
330
9
100
AcDbSymbolTableRecord
100
AcDbBlockTableRecord
2
*Paper_Space
70
0
280
1
281
0
0
ENDTAB
0
ENDSEC
0
SECTION
2
BLOCKS
0
BLOCK
5
D
330
C
100
AcDbEntity
8
0
100
AcDbBlockBegin
2
*Model_Space
70
0
10
0
20
0
30
0
3
*Model_Space
1

0
ENDBLK
5
E
100
AcDbEntity
8
0
100
AcDbBlockEnd
0
BLOCK
5
10
330
F
100
AcDbEntity
8
0
100
AcDbBlockBegin
2
*Paper_Space
70
0
10
0
20
0
30
0
3
*Paper_Space
1

0
ENDBLK
5
11
100
AcDbEntity
8
0
100
AcDbBlockEnd
0
ENDSEC
0
SECTION
2
ENTITIES
0
LWPOLYLINE
5
21
330
C
100
AcDbEntity
8
PERIMETER_CUT
100
AcDbPolyline
90
6
70
1
43
0
38
0
39
0
10
900
20
1900
10
700
20
2100
10
200
20
2100
10
0
20
1900
10
0
20
0
10
900
20
0
0
LWPOLYLINE
5
22
330
C
100
AcDbEntity
8
INNER_PERIMETER_CUT
100
AcDbPolyline
90
4
70
1
43
0
38
0
39
0
10
825
20
800
10
75
20
800
10
75
20
75
10
825
20
75
0
LWPOLYLINE
5
23
330
C
100
AcDbEntity
8
INNER_REBATE
100
AcDbPolyline
90
4
70
1
43
0
38
0
39
0
10
835
20
810
10
65
20
810
10
65
20
65
10
835
20
65
0
LWPOLYLINE
5
24
330
C
100
AcDbEntity
8
panel
100
AcDbPolyline
90
52
70
1
43
0
38
0
39
0
10
834.825
20
807.4250000000001
10
834.642310878027
20
806.5065597623238
10
834.1220562748478
20
805.7279437251524
10
833.3434402376762
20
805.207689121973
10
832.425
20
805.0250000000001
10
831.5065597623238
20
805.207689121973
10
830.7279437251523
20
805.7279437251524
10
830.2076891219729
20
806.5065597623238
10
830.025
20
807.4250000000001
10
830.2076891219729
20
808.3434402376763
10
830.7279437251523
20
809.1220562748478
10
831.5065597623238
20
809.6423108780272
10
832.425
20
809.825
10
67.57499999999993
20
809.825
10
68.49344023767617
20
809.6423108780272
10
69.27205627484761
20
809.1220562748478
10
69.79231087802702
20
808.3434402376763
10
69.97499999999991
20
807.4250000000001
10
69.79231087802702
20
806.5065597623238
10
69.27205627484761
20
805.7279437251524
10
68.49344023767617
20
805.207689121973
10
67.57499999999993
20
805.0250000000001
10
66.6565597623237
20
805.207689121973
10
65.87794372515225
20
805.7279437251524
10
65.35768912197284
20
806.5065597623238
10
65.17499999999995
20
807.4250000000001
10
65.17499999999995
20
67.575
10
65.35768912197284
20
68.49344023767623
10
65.87794372515225
20
69.27205627484771
10
66.6565597623237
20
69.7923108780271
10
67.57499999999993
20
69.97500000000001
10
68.49344023767617
20
69.7923108780271
10
69.27205627484761
20
69.27205627484771
10
69.79231087802702
20
68.49344023767623
10
69.97499999999991
20
67.575
10
69.79231087802702
20
66.65655976232378
10
69.27205627484761
20
65.87794372515229
10
68.49344023767617
20
65.35768912197291
10
67.57499999999993
20
65.175
10
832.425
20
65.175
10
831.5065597623238
20
65.35768912197291
10
830.7279437251523
20
65.87794372515229
10
830.2076891219729
20
66.65655976232378
10
830.025
20
67.575
10
830.2076891219729
20
68.49344023767623
10
830.7279437251523
20
69.27205627484771
10
831.5065597623238
20
69.7923108780271
10
832.425
20
69.97500000000001
10
833.3434402376762
20
69.7923108780271
10
834.1220562748478
20
69.27205627484771
10
834.642310878027
20
68.49344023767623
10
834.825
20
67.575
0
LWPOLYLINE
5
25
330
C
100
AcDbEntity
8
INNER_PERIMETER_CUT
100
AcDbPolyline
90
4
70
1
43
0
38
0
39
0
10
825
20
1500
10
75
20
1500
10
75
20
900
10
825
20
900
0
LWPOLYLINE
5
26
330
C
100
AcDbEntity
8
INNER_REBATE
100
AcDbPolyline
90
4
70
1
43
0
38
0
39
0
10
835
20
1510
10
65
20
1510
10
65
20
890
10
835
20
890
0
LWPOLYLINE
5
27
330
C
100
AcDbEntity
8
panel
100
AcDbPolyline
90
52
70
1
43
0
38
0
39
0
10
834.825
20
1507.425
10
834.642310878027
20
1506.5065597623238
10
834.1220562748478
20
1505.7279437251523
10
833.3434402376762
20
1505.2076891219729
10
832.425
20
1505.0249999999999
10
831.5065597623238
20
1505.2076891219729
10
830.7279437251523
20
1505.7279437251523
10
830.2076891219729
20
1506.5065597623238
10
830.025
20
1507.425
10
830.2076891219729
20
1508.343440237676
10
830.7279437251523
20
1509.1220562748476
10
831.5065597623238
20
1509.642310878027
10
832.425
20
1509.825
10
67.57499999999993
20
1509.825
10
68.49344023767617
20
1509.642310878027
10
69.27205627484761
20
1509.1220562748476
10
69.79231087802702
20
1508.343440237676
10
69.97499999999991
20
1507.425
10
69.79231087802702
20
1506.5065597623238
10
69.27205627484761
20
1505.7279437251523
10
68.49344023767617
20
1505.2076891219729
10
67.57499999999993
20
1505.0249999999999
10
66.6565597623237
20
1505.2076891219729
10
65.87794372515225
20
1505.7279437251523
10
65.35768912197284
20
1506.5065597623238
10
65.17499999999995
20
1507.425
10
65.17499999999995
20
892.5749999999999
10
65.35768912197284
20
893.4934402376762
10
65.87794372515225
20
894.2720562748476
10
66.6565597623237
20
894.792310878027
10
67.57499999999993
20
894.9749999999999
10
68.49344023767617
20
894.792310878027
10
69.27205627484761
20
894.2720562748476
10
69.79231087802702
20
893.4934402376762
10
69.97499999999991
20
892.5749999999999
10
69.79231087802702
20
891.6565597623237
10
69.27205627484761
20
890.8779437251522
10
68.49344023767617
20
890.3576891219728
10
67.57499999999993
20
890.175
10
832.425
20
890.175
10
831.5065597623238
20
890.3576891219728
10
830.7279437251523
20
890.8779437251522
10
830.2076891219729
20
891.6565597623237
10
830.025
20
892.5749999999999
10
830.2076891219729
20
893.4934402376762
10
830.7279437251523
20
894.2720562748476
10
831.5065597623238
20
894.792310878027
10
832.425
20
894.9749999999999
10
833.3434402376762
20
894.792310878027
10
834.1220562748478
20
894.2720562748476
10
834.642310878027
20
893.4934402376762
10
834.825
20
892.5749999999999
0
LWPOLYLINE
5
28
330
C
100
AcDbEntity
8
INNER_PERIMETER_CUT
100
AcDbPolyline
90
5
70
1
43
0
38
0
39
0
10
825
20
1868.933982822018
10
668.9339828220179
20
2024.9999999999998
10
75
20
2025
10
75
20
1600
10
825
20
1600
0
LWPOLYLINE
5
29
330
C
100
AcDbEntity
8
INNER_REBATE
100
AcDbPolyline
90
5
70
1
43
0
38
0
39
0
10
835
20
1873.0761184457488
10
673.0761184457488
20
2035
10
65
20
2035
10
65
20
1590
10
835
20
1590
0
LWPOLYLINE
5
2A
330
C
100
AcDbEntity
8
panel
100
AcDbPolyline
90
71
70
1
43
0
38
0
39
0
10
834.825
20
1872.009518522638
10
834.6655930235933
20
1871.1494354437293
10
834.2085475811457
20
1870.4036050673767
10
833.5145771993749
20
1869.871102864586
10
832.6758683118424
20
1869.6226659737542
10
831.8038342917539
20
1869.6912965395443
10
831.0143153944981
20
1870.0678777361381
10
830.412190636931
20
1870.702384838602
10
830.0774457582389
20
1871.5105304646754
10
830.0545479825716
20
1872.3849612387346
10
830.3465390309174
20
1873.209518522638
10
830.9146310614803
20
1873.8746688301349
10
831.6833592135001
20
1874.2920541617464
10
832.5506062949831
20
1874.406229406049
10
833.401167943382
20
1874.2020276209803
10
834.1220562748478
20
1873.7065747974857
10
673.7065747974857
20
2034.1220562748479
10
674.2020276209803
20
2033.401167943382
10
674.4062294060491
20
2032.5506062949833
10
674.2920541617465
20
2031.6833592135001
10
673.8746688301349
20
2030.9146310614803
10
673.2095185226382
20
2030.3465390309173
10
672.3849612387347
20
2030.0545479825716
10
671.5105304646755
20
2030.0774457582388
10
670.702384838602
20
2030.412190636931
10
670.0678777361383
20
2031.014315394498
10
669.6912965395443
20
2031.803834291754
10
669.6226659737542
20
2032.6758683118424
10
669.871102864586
20
2033.5145771993748
10
670.4036050673768
20
2034.2085475811457
10
671.1494354437293
20
2034.6655930235931
10
672.0095185226381
20
2034.825
10
67.57499999999993
20
2034.825
10
68.49344023767617
20
2034.642310878027
10
69.27205627484761
20
2034.1220562748476
10
69.79231087802702
20
2033.343440237676
10
69.97499999999991
20
2032.425
10
69.79231087802702
20
2031.5065597623238
10
69.27205627484761
20
2030.7279437251523
10
68.49344023767617
20
2030.2076891219729
10
67.57499999999993
20
2030.0249999999999
10
66.6565597623237
20
2030.2076891219729
10
65.87794372515225
20
2030.7279437251523
10
65.35768912197284
20
2031.5065597623238
10
65.17499999999995
20
2032.425
10
65.17499999999995
20
1592.575
10
65.35768912197284
20
1593.4934402376762
10
65.87794372515225
20
1594.2720562748477
10
66.6565597623237
20
1594.7923108780271
10
67.57499999999993
20
1594.9750000000001
10
68.49344023767617
20
1594.7923108780271
10
69.27205627484761
20
1594.2720562748477
10
69.79231087802702
20
1593.4934402376762
10
69.97499999999991
20
1592.575
10
69.79231087802702
20
1591.656559762324
10
69.27205627484761
20
1590.8779437251524
10
68.49344023767617
20
1590.357689121973
10
67.57499999999993
20
1590.175
10
832.425
20
1590.175
10
831.5065597623238
20
1590.357689121973
10
830.7279437251523
20
1590.8779437251524
10
830.2076891219729
20
1591.656559762324
10
830.025
20
1592.575
10
830.2076891219729
20
1593.4934402376762
10
830.7279437251523
20
1594.2720562748477
10
831.5065597623238
20
1594.7923108780271
10
832.425
20
1594.9750000000001
10
833.3434402376762
20
1594.7923108780271
10
834.1220562748478
20
1594.2720562748477
10
834.642310878027
20
1593.4934402376762
10
834.825
20
1592.575
0
CIRCLE
5
2B
330
C
100
AcDbEntity
8
HINGE_CUPS
100
AcDbCircle
10
877.5
20
300
30
0
40
17.5
0
CIRCLE
5
2C
330
C
100
AcDbEntity
8
HINGE_SCREW_HOLES
100
AcDbCircle
10
877.5
20
322.5
30
0
40
2
0
CIRCLE
5
2D
330
C
100
AcDbEntity
8
HINGE_SCREW_HOLES
100
AcDbCircle
10
877.5
20
277.5
30
0
40
2
0
CIRCLE
5
2E
330
C
100
AcDbEntity
8
HINGE_CUPS
100
AcDbCircle
10
877.5
20
1800
30
0
40
17.5
0
CIRCLE
5
2F
330
C
100
AcDbEntity
8
HINGE_SCREW_HOLES
100
AcDbCircle
10
877.5
20
1822.5
30
0
40
2
0
CIRCLE
5
30
330
C
100
AcDbEntity
8
HINGE_SCREW_HOLES
100
AcDbCircle
10
877.5
20
1777.5
30
0
40
2
0
TEXT
5
31
330
C
100
AcDbEntity
8
PART_IDENTIFICATION
100
AcDbText
10
350
20
1080
30
0
40
18
1
Customer: Mohammad Attari
7
STANDARD
100
AcDbText
0
TEXT
5
32
330
C
100
AcDbEntity
8
PART_IDENTIFICATION
100
AcDbText
10
350
20
1052
30
0
40
18
1
Job: Getai Kitchen
7
STANDARD
100
AcDbText
0
TEXT
5
33
330
C
100
AcDbEntity
8
PART_IDENTIFICATION
100
AcDbText
10
350
20
1024
30
0
40
18
1
Door ID: DOOR-12345
7
STANDARD
100
AcDbText
0
ENDSEC
0
SECTION
2
OBJECTS
0
DICTIONARY
5
A
330
0
100
AcDbDictionary
281
1
3
ACAD_GROUP
350
B
0
DICTIONARY
5
B
330
A
100
AcDbDictionary
281
0
0
ENDSEC
0
EOF