0
SECTION
2
HEADER
9
$ACADVER
1
AC1021
9
$LASTSAVEDBY
1
@tarikjabiri/dxf
9
$HANDSEED
5
2E
9
$INSUNITS
70
0
9
$CLAYER
8
0
9
$VIEWCTR
10
300.5
20
360
0
ENDSEC
0
SECTION
2
CLASSES
0
ENDSEC
0
SECTION
2
TABLES
0
TABLE
2
VPORT
5
1
330
0
100
AcDbSymbolTable
70
1
0
VPORT
5
19
330
1
100
AcDbSymbolTableRecord
100
AcDbViewportTableRecord
2
*Active
70
0
10
0
20
0
11
1
21
1
12
300.5
22
360
13
0
23
0
14
10
24
10
15
10
25
10
16
0
26
0
36
1
17
0
27
0
37
0
40
720
41
2
42
50
43
0
44
0
50
0
51
0
71
0
72
100
73
1
74
3
75
0
76
1
77
0
78
0
281
0
65
1
110
0
120
0
130
0
111
1
121
0
131
0
112
0
122
1
132
0
79
0
146
0
348
10020
60
7
61
5
292
1
282
1
141
0
142
0
63
250
421
3358443
0
ENDTAB
0
TABLE
2
LTYPE
5
2
330
0
100
AcDbSymbolTable
70
3
0
LTYPE
5
12
330
2
100
AcDbSymbolTableRecord
100
AcDbLinetypeTableRecord
2
ByBlock
70
0
3

72
65
73
0
40
0
0
LTYPE
5
13
330
2
100
AcDbSymbolTableRecord
100
AcDbLinetypeTableRecord
2
ByLayer
70
0
3

72
65
73
0
40
0
0
LTYPE
5
14
330
2
100
AcDbSymbolTableRecord
100
AcDbLinetypeTableRecord
2
Continuous
70
0
3
Solid line
72
65
73
0
40
0
0
ENDTAB
0
TABLE
2
LAYER
5
3
330
0
100
AcDbSymbolTable
70
8
0
LAYER
5
15
330
3
100
AcDbSymbolTableRecord
100
AcDbLayerTableRecord
2
0
70
0
62
7
6
Continuous
370
0
390
0
0
LAYER
5
1A
330
3
100
AcDbSymbolTableRecord
100
AcDbLayerTableRecord
2
HINGE_SCREW_HOLES
70
0
62
3
6
Continuous
370
0
390
0
0
LAYER
5
1B
330
3
100
AcDbSymbolTableRecord
100
AcDbLayerTableRecord
2
HINGE_CUPS
70
0
62
3
6
Continuous
370
0
390
0
0
LAYER
5
1C
330
3
100
AcDbSymbolTableRecord
100
AcDbLayerTableRecord
2
INNER_REBATE
70
0
62
1
6
Continuous
370
0
390
0
0
LAYER
5
1D
330
3
100
AcDbSymbolTableRecord
100
AcDbLayerTableRecord
2
INNER_PERIMETER_CUT
70
0
62
1
6
Continuous
370
0
390
0
0
LAYER
5
1E
330
3
100
AcDbSymbolTableRecord
100
AcDbLayerTableRecord
2
PERIMETER_CUT
70
0
62
5
6
Continuous
370
0
390
0
0
LAYER
5
1F
330
3
100
AcDbSymbolTableRecord
100
AcDbLayerTableRecord
2
panel
70
0
62
2
6
Continuous
370
0
390
0
0
LAYER
5
20
330
3
100
AcDbSymbolTableRecord
100
AcDbLayerTableRecord
2
PART_IDENTIFICATION
70
0
62
7
6
Continuous
370
0
390
0
0
ENDTAB
0
TABLE
2
STYLE
5
4
330
0
100
AcDbSymbolTable
70
1
0
STYLE
5
16
330
4
100
AcDbSymbolTableRecord
100
AcDbTextStyleTableRecord
2
Standard
70
0
40
0
41
1
50
0
71
0
42
1
3
txt
4

0
ENDTAB
0
TABLE
2
VIEW
5
5
330
0
100
AcDbSymbolTable
70
0
0
ENDTAB
0
TABLE
2
UCS
5
6
330
0
100
AcDbSymbolTable
70
0
0
ENDTAB
0
TABLE
2
APPID
5
7
330
0
100
AcDbSymbolTable
70
1
0
APPID
5
17
330
7
100
AcDbSymbolTableRecord
100
AcDbRegAppTableRecord
2
ACAD
70
0
0
ENDTAB
0
TABLE
2
DIMSTYLE
5
8
330
0
100
AcDbSymbolTable
70
1
100
AcDbDimStyleTable
0
DIMSTYLE
105
18
330
8
100
AcDbSymbolTableRecord
100
AcDbDimStyleTableRecord
2
Standard
70
0
340
16
0
ENDTAB
0
TABLE
2
BLOCK_RECORD
5
9
330
0
100
AcDbSymbolTable
70
2
0
BLOCK_RECORD
5
C
330
9
100
AcDbSymbolTableRecord
100
AcDbBlockTableRecord
2
*Model_Space
70
0
280
1
281
0
0
BLOCK_RECORD
5
F
330
9
100
AcDbSymbolTableRecord
100
AcDbBlockTableRecord
2
*Paper_Space
70
0
280
1
281
0
0
ENDTAB
0
ENDSEC
0
SECTION
2
BLOCKS
0
BLOCK
5
D
330
C
100
AcDbEntity
8
0
100
AcDbBlockBegin
2
*Model_Space
70
0
10
0
20
0
30
0
3
*Model_Space
1

0
ENDBLK
5
E
100
AcDbEntity
8
0
100
AcDbBlockEnd
0
BLOCK
5
10
330
F
100
AcDbEntity
8
0
100
AcDbBlockBegin
2
*Paper_Space
70
0
10
0
20
0
30
0
3
*Paper_Space
1

0
ENDBLK
5
11
100
AcDbEntity
8
0
100
AcDbBlockEnd
0
ENDSEC
0
SECTION
2
ENTITIES
0
LWPOLYLINE
5
21
330
C
100
AcDbEntity
8
PERIMETER_CUT
100
AcDbPolyline
90
5
70
1
43
0
38
0
39
0
10
601
20
620
10
100
20
720
10
0
20
720
10
0
20
0
10
601
20
0
0
LWPOLYLINE
5
22
330
C
100
AcDbEntity
8
INNER_PERIMETER_CUT
100
AcDbPolyline
90
4
70
1
43
0
38
0
39
0
10
75
20
75
10
75
20
190
10
526
20
190
10
526
20
75
0
LWPOLYLINE
5
23
330
C
100
AcDbEntity
8
INNER_REBATE
100
AcDbPolyline
90
4
70
1
43
0
38
0
39
0
10
65
20
65
10
65
20
200
10
536
20
200
10
536
20
65
0
LWPOLYLINE
5
24
330
C
100
AcDbEntity
8
panel
100
AcDbPolyline
90
52
70
1
43
0
38
0
39
0
10
67.57499999999993
20
65.175
10
68.49344023767617
20
65.35768912197291
10
69.27205627484761
20
65.87794372515229
10
69.79231087802702
20
66.65655976232378
10
69.97499999999991
20
67.575
10
69.79231087802702
20
68.49344023767623
10
69.27205627484761
20
69.27205627484771
10
68.49344023767617
20
69.7923108780271
10
67.57499999999993
20
69.97500000000001
10
66.6565597623237
20
69.7923108780271
10
65.87794372515225
20
69.27205627484771
10
65.35768912197284
20
68.49344023767623
10
65.17499999999995
20
67.575
10
65.17499999999995
20
197.42499999999998
10
65.35768912197284
20
196.50655976232377
10
65.87794372515225
20
195.72794372515227
10
66.6565597623237
20
195.2076891219729
10
67.57499999999993
20
195.02499999999998
10
68.49344023767617
20
195.2076891219729
10
69.27205627484761
20
195.72794372515227
10
69.79231087802702
20
196.50655976232377
10
69.97499999999991
20
197.42499999999998
10
69.79231087802702
20
198.3434402376762
10
69.27205627484761
20
199.1220562748477
10
68.49344023767617
20
199.64231087802708
10
67.57499999999993
20
199.825
10
533.425
20
199.825
10
532.5065597623238
20
199.64231087802708
10
531.7279437251523
20
199.1220562748477
10
531.2076891219729
20
198.3434402376762
10
531.025
20
197.42499999999998
10
531.2076891219729
20
196.50655976232377
10
531.7279437251523
20
195.72794372515227
10
532.5065597623238
20
195.2076891219729
10
533.425
20
195.02499999999998
10
534.3434402376762
20
195.2076891219729
10
535.1220562748478
20
195.72794372515227
10
535.642310878027
20
196.50655976232377
10
535.825
20
197.42499999999998
10
535.825
20
67.575
10
535.642310878027
20
68.49344023767623
10
535.1220562748478
20
69.27205627484771
10
534.3434402376762
20
69.7923108780271
10
533.425
20
69.97500000000001
10
532.5065597623238
20
69.7923108780271
10
531.7279437251523
20
69.27205627484771
10
531.2076891219729
20
68.49344023767623
10
531.025
20
67.575
10
531.2076891219729
20
66.65655976232378
10
531.7279437251523
20
65.87794372515229
10
532.5065597623238
20
65.35768912197291
10
533.425
20
65.175
0
LWPOLYLINE
5
25
330
C
100
AcDbEntity
8
INNER_PERIMETER_CUT
100
AcDbPolyline
90
6
70
1
43
0
38
0
39
0
10
75
20
260
10
75
20
558.4906332818532
10
75
20
645
10
92.58807274208465
20
645
10
526
20
558.4906332818532
10
526
20
260
0
LWPOLYLINE
5
26
330
C
100
AcDbEntity
8
INNER_REBATE
100
AcDbPolyline
90
6
70
1
43
0
38
0
39
0
10
65
20
250
10
65
20
566.6918821776061
10
65
20
655
10
93.57632970980671
20
655
10
536
20
566.6918821776061
10
536
20
250
0
LWPOLYLINE
5
27
330
C
100
AcDbEntity
8
panel
100
AcDbPolyline
90
71
70
1
43
0
38
0
39
0
10
67.57499999999993
20
250.175
10
68.49344023767617
20
250.35768912197292
10
69.27205627484761
20
250.8779437251523
10
69.79231087802702
20
251.6565597623238
10
69.97499999999991
20
252.57500000000002
10
69.79231087802702
20
253.49344023767623
10
69.27205627484761
20
254.27205627484773
10
68.49344023767617
20
254.7923108780271
10
67.57499999999993
20
254.97500000000002
10
66.6565597623237
20
254.7923108780271
10
65.87794372515225
20
254.27205627484773
10
65.35768912197284
20
253.49344023767623
10
65.17499999999995
20
252.57500000000002
10
65.17499999999995
20
566.5483603219304
10
65.17499999999995
20
652.4250000000001
10
65.35768912197284
20
651.5065597623238
10
65.87794372515225
20
650.7279437251524
10
66.6565597623237
20
650.207689121973
10
67.57499999999993
20
650.0250000000001
10
68.49344023767617
20
650.207689121973
10
69.27205627484761
20
650.7279437251524
10
69.79231087802702
20
651.5065597623238
10
69.97499999999991
20
652.4250000000001
10
69.79231087802702
20
653.3434402376763
10
69.27205627484761
20
654.1220562748478
10
68.49344023767617
20
654.6423108780272
10
67.57499999999993
20
654.825
10
93.32185354061806
20
654.825
10
92.4307844963082
20
654.6534514709261
10
91.66710010521058
20
654.1633299652273
10
91.1399744789664
20
653.424701835712
10
90.92476397242507
20
652.5431592233392
10
91.05223445711869
20
651.6447249101662
10
91.50416312125589
20
650.8578364669382
10
92.21594355018755
20
650.2949851894728
10
93.08582167257458
20
650.0366346683835
10
93.98944222810945
20
650.1197179469025
10
94.7976262358398
20
650.532357679846
10
95.39483804764285
20
651.2155640845273
10
95.6957019903017
20
652.0716679494657
10
95.65720742480426
20
652.9782831423572
10
95.28485742289092
20
653.8058025775549
10
94.63188206383569
20
654.4359264701517
10
93.79162881627809
20
654.7785741310566
10
533.89477527566
20
566.9336347180063
10
532.993830860913
20
566.9410123385742
10
532.1536509982398
20
566.6156616568362
10
531.4926420121857
20
566.0034342578211
10
531.1039597233165
20
565.1906111860101
10
531.042381023207
20
564.2917433806895
10
531.3165841816826
20
563.4335080425502
10
531.8879258205618
20
562.7368560494921
10
532.6758869146632
20
562.2999663815763
10
533.5694203166053
20
562.1844097834828
10
534.4426006017461
20
562.4064716158409
10
535.1723707047809
20
562.9348567636883
10
535.655884319219
20
563.6951000486979
10
535.825
20
564.5800605869497
10
535.825
20
252.57500000000002
10
535.642310878027
20
253.49344023767623
10
535.1220562748478
20
254.27205627484773
10
534.3434402376762
20
254.7923108780271
10
533.425
20
254.97500000000002
10
532.5065597623238
20
254.7923108780271
10
531.7279437251523
20
254.27205627484773
10
531.2076891219729
20
253.49344023767623
10
531.025
20
252.57500000000002
10
531.2076891219729
20
251.6565597623238
10
531.7279437251523
20
250.8779437251523
10
532.5065597623238
20
250.35768912197292
10
533.425
20
250.175
0
CIRCLE
5
28
330
C
100
AcDbEntity
8
HINGE_CUPS
100
AcDbCircle
10
578.5
20
585
30
0
40
17.5
0
CIRCLE
5
29
330
C
100
AcDbEntity
8
HINGE_SCREW_HOLES
100
AcDbCircle
10
578.5
20
607.5
30
0
40
2
0
CIRCLE
5
2A
330
C
100
AcDbEntity
8
HINGE_SCREW_HOLES
100
AcDbCircle
10
578.5
20
562.5
30
0
40
2
0
CIRCLE
5
2B
330
C
100
AcDbEntity
8
HINGE_CUPS
100
AcDbCircle
10
578.5
20
50
30
0
40
17.5
0
CIRCLE
5
2C
330
C
100
AcDbEntity
8
HINGE_SCREW_HOLES
100
AcDbCircle
10
578.5
20
72.5
30
0
40
2
0
CIRCLE
5
2D
330
C
100
AcDbEntity
8
HINGE_SCREW_HOLES
100
AcDbCircle
10
578.5
20
27.5
30
0
40
2
0
ENDSEC
0
SECTION
2
OBJECTS
0
DICTIONARY
5
A
330
0
100
AcDbDictionary
281
1
3
ACAD_GROUP
350
B
0
DICTIONARY
5
B
330
A
100
AcDbDictionary
281
0
0
ENDSEC
0
EOF