0
SECTION
2
HEADER
9
$ACADVER
1
AC1021
9
$LASTSAVEDBY
1
@tarikjabiri/dxf
9
$HANDSEED
5
25
9
$INSUNITS
70
0
9
$CLAYER
8
0
9
$VIEWCTR
10
300.5
20
360
0
ENDSEC
0
SECTION
2
CLASSES
0
ENDSEC
0
SECTION
2
TABLES
0
TABLE
2
VPORT
5
1
330
0
100
AcDbSymbolTable
70
1
0
VPORT
5
19
330
1
100
AcDbSymbolTableRecord
100
AcDbViewportTableRecord
2
*Active
70
0
10
0
20
0
11
1
21
1
12
300.5
22
360
13
0
23
0
14
10
24
10
15
10
25
10
16
0
26
0
36
1
17
0
27
0
37
0
40
720
41
2
42
50
43
0
44
0
50
0
51
0
71
0
72
100
73
1
74
3
75
0
76
1
77
0
78
0
281
0
65
1
110
0
120
0
130
0
111
1
121
0
131
0
112
0
122
1
132
0
79
0
146
0
348
10020
60
7
61
5
292
1
282
1
141
0
142
0
63
250
421
3358443
0
ENDTAB
0
TABLE
2
LTYPE
5
2
330
0
100
AcDbSymbolTable
70
3
0
LTYPE
5
12
330
2
100
AcDbSymbolTableRecord
100
AcDbLinetypeTableRecord
2
ByBlock
70
0
3

72
65
73
0
40
0
0
LTYPE
5
13
330
2
100
AcDbSymbolTableRecord
100
AcDbLinetypeTableRecord
2
ByLayer
70
0
3

72
65
73
0
40
0
0
LTYPE
5
14
330
2
100
AcDbSymbolTableRecord
100
AcDbLinetypeTableRecord
2
Continuous
70
0
3
Solid line
72
65
73
0
40
0
0
ENDTAB
0
TABLE
2
LAYER
5
3
330
0
100
AcDbSymbolTable
70
8
0
LAYER
5
15
330
3
100
AcDbSymbolTableRecord
100
AcDbLayerTableRecord
2
0
70
0
62
7
6
Continuous
370
0
390
0
0
LAYER
5
1A
330
3
100
AcDbSymbolTableRecord
100
AcDbLayerTableRecord
2
HINGE_SCREW_HOLES
70
0
62
3
6
Continuous
370
0
390
0
0
LAYER
5
1B
330
3
100
AcDbSymbolTableRecord
100
AcDbLayerTableRecord
2
HINGE_CUPS
70
0
62
3
6
Continuous
370
0
390
0
0
LAYER
5
1C
330
3
100
AcDbSymbolTableRecord
100
AcDbLayerTableRecord
2
INNER_REBATE
70
0
62
1
6
Continuous
370
0
390
0
0
LAYER
5
1D
330
3
100
AcDbSymbolTableRecord
100
AcDbLayerTableRecord
2
INNER_PERIMETER_CUT
70
0
62
1
6
Continuous
370
0
390
0
0
LAYER
5
1E
330
3
100
AcDbSymbolTableRecord
100
AcDbLayerTableRecord
2
PERIMETER_CUT
70
0
62
5
6
Continuous
370
0
390
0
0
LAYER
5
1F
330
3
100
AcDbSymbolTableRecord
100
AcDbLayerTableRecord
2
panel
70
0
62
2
6
Continuous
370
0
390
0
0
LAYER
5
20
330
3
100
AcDbSymbolTableRecord
100
AcDbLayerTableRecord
2
PART_IDENTIFICATION
70
0
62
7
6
Continuous
370
0
390
0
0
ENDTAB
0
TABLE
2
STYLE
5
4
330
0
100
AcDbSymbolTable
70
1
0
STYLE
5
16
330
4
100
AcDbSymbolTableRecord
100
AcDbTextStyleTableRecord
2
Standard
70
0
40
0
41
1
50
0
71
0
42
1
3
txt
4

0
ENDTAB
0
TABLE
2
VIEW
5
5
330
0
100
AcDbSymbolTable
70
0
0
ENDTAB
0
TABLE
2
UCS
5
6
330
0
100
AcDbSymbolTable
70
0
0
ENDTAB
0
TABLE
2
APPID
5
7
330
0
100
AcDbSymbolTable
70
1
0
APPID
5
17
330
7
100
AcDbSymbolTableRecord
100
AcDbRegAppTableRecord
2
ACAD
70
0
0
ENDTAB
0
TABLE
2
DIMSTYLE
5
8
330
0
100
AcDbSymbolTable
70
1
100
AcDbDimStyleTable
0
DIMSTYLE
105
18
330
8
100
AcDbSymbolTableRecord
100
AcDbDimStyleTableRecord
2
Standard
70
0
340
16
0
ENDTAB
0
TABLE
2
BLOCK_RECORD
5
9
330
0
100
AcDbSymbolTable
70
2
0
BLOCK_RECORD
5
C
330
9
100
AcDbSymbolTableRecord
100
AcDbBlockTableRecord
2
*Model_Space
70
0
280
1
281
0
0
BLOCK_RECORD
5
F
330
9
100
AcDbSymbolTableRecord
100
AcDbBlockTableRecord
2
*Paper_Space
70
0
280
1
281
0
0
ENDTAB
0
ENDSEC
0
SECTION
2
BLOCKS
0
BLOCK
5
D
330
C
100
AcDbEntity
8
0
100
AcDbBlockBegin
2
*Model_Space
70
0
10
0
20
0
30
0
3
*Model_Space
1

0
ENDBLK
5
E
100
AcDbEntity
8
0
100
AcDbBlockEnd
0
BLOCK
5
10
330
F
100
AcDbEntity
8
0
100
AcDbBlockBegin
2
*Paper_Space
70
0
10
0
20
0
30
0
3
*Paper_Space
1

0
ENDBLK
5
11
100
AcDbEntity
8
0
100
AcDbBlockEnd
0
ENDSEC
0
SECTION
2
ENTITIES
0
LWPOLYLINE
5
21
330
C
100
AcDbEntity
8
PERIMETER_CUT
100
AcDbPolyline
90
5
70
1
43
0
38
0
39
0
10
601
20
620
10
306.41
20
720
10
0
20
720
10
0
20
0
10
601
20
0
0
LWPOLYLINE
5
22
330
C
100
AcDbEntity
8
INNER_PERIMETER_CUT
100
AcDbPolyline
90
5
70
1
43
0
38
0
39
0
10
526
20
566.2557893907666
10
294.0274299662593
20
645
10
75
20
645
10
75
20
75
10
526
20
75
0
LWPOLYLINE
5
23
330
C
100
AcDbEntity
8
INNER_REBATE
100
AcDbPolyline
90
5
70
1
43
0
38
0
39
0
10
536
20
573.4216841386643
10
295.67843930409134
20
655
10
65
20
655
10
65
20
65
10
536
20
65
0
LWPOLYLINE
5
24
330
C
100
AcDbEntity
8
panel
100
AcDbPolyline
90
70
70
1
43
0
38
0
39
0
10
535.825
20
571.5764662410807
10
535.6469067036542
20
570.6692007891558
10
535.1390578331196
20
569.8965835830592
10
534.3768237878953
20
569.3732795769969
10
533.4733285460655
20
569.1769528838278
10
532.5626608125054
20
569.3367405601743
10
531.7799737693362
20
569.8289283443735
10
531.2414268461621
20
570.5804701156673
10
531.0269463736373
20
571.4798287478966
10
531.16836363039
20
572.3935294548857
10
531.644690728574
20
573.1859689276503
10
532.3852354489774
20
573.7395403679743
10
533.2800927496434
20
573.9720876403827
10
534.1964558918764
20
573.8490981529593
10
296.02476029147584
20
654.6976319118787
10
296.7985009927656
20
654.2614006884305
10
297.3605893690242
20
653.5736296433737
10
297.63403372079125
20
652.7285257801533
10
297.5813791811107
20
651.8418466653691
10
297.2098380722179
20
651.0350446093813
10
296.57030200226774
20
650.4186308129944
10
295.7503710195291
20
650.0770381656953
10
294.8623546512358
20
650.0570561040738
10
294.0278883772007
20
650.3614216583691
10
293.36127268698016
20
650.948444549486
10
292.9538168426845
20
651.7377176885784
10
292.86133185061163
20
652.6211308871355
10
293.09648578399526
20
653.4776791816043
10
293.62706858169435
20
654.1900374116609
10
294.38040400092444
20
654.6606307597618
10
295.2533043995995
20
654.825
10
67.57499999999993
20
654.825
10
68.49344023767617
20
654.6423108780272
10
69.27205627484761
20
654.1220562748478
10
69.79231087802702
20
653.3434402376763
10
69.97499999999991
20
652.4250000000001
10
69.79231087802702
20
651.5065597623238
10
69.27205627484761
20
650.7279437251524
10
68.49344023767617
20
650.207689121973
10
67.57499999999993
20
650.0250000000001
10
66.6565597623237
20
650.207689121973
10
65.87794372515225
20
650.7279437251524
10
65.35768912197284
20
651.5065597623238
10
65.17499999999995
20
652.4250000000001
10
65.17499999999995
20
67.575
10
65.35768912197284
20
68.49344023767623
10
65.87794372515225
20
69.27205627484771
10
66.6565597623237
20
69.7923108780271
10
67.57499999999993
20
69.97500000000001
10
68.49344023767617
20
69.7923108780271
10
69.27205627484761
20
69.27205627484771
10
69.79231087802702
20
68.49344023767623
10
69.97499999999991
20
67.575
10
69.79231087802702
20
66.65655976232378
10
69.27205627484761
20
65.87794372515229
10
68.49344023767617
20
65.35768912197291
10
67.57499999999993
20
65.175
10
533.425
20
65.175
10
532.5065597623238
20
65.35768912197291
10
531.7279437251523
20
65.87794372515229
10
531.2076891219729
20
66.65655976232378
10
531.025
20
67.575
10
531.2076891219729
20
68.49344023767623
10
531.7279437251523
20
69.27205627484771
10
532.5065597623238
20
69.7923108780271
10
533.425
20
69.97500000000001
10
534.3434402376762
20
69.7923108780271
10
535.1220562748478
20
69.27205627484771
10
535.642310878027
20
68.49344023767623
10
535.825
20
67.575
0
ENDSEC
0
SECTION
2
OBJECTS
0
DICTIONARY
5
A
330
0
100
AcDbDictionary
281
1
3
ACAD_GROUP
350
B
0
DICTIONARY
5
B
330
A
100
AcDbDictionary
281
0
0
ENDSEC
0
EOF